<?xml version="1.0" encoding="utf-8"?>
<!-- Generator: Adobe Illustrator 25.2.1, SVG Export Plug-In . SVG Version: 6.00 Build 0)  -->
<svg version="1.1" id="Layer_1" xmlns="http://www.w3.org/2000/svg" xmlns:xlink="http://www.w3.org/1999/xlink" x="0px" y="0px"
	 viewBox="0 0 50 87.48" style="enable-background:new 0 0 50 87.48;" xml:space="preserve">
<style type="text/css">
	.Drop_x0020_Shadow{fill:none;}
	.Outer_x0020_Glow_x0020_5_x0020_pt{fill:none;}
	.Blue_x0020_Neon{fill:none;stroke:#8AACDA;stroke-width:7;stroke-linecap:round;stroke-linejoin:round;}
	.Chrome_x0020_Highlight{fill:url(#SVGID_1_);stroke:#FFFFFF;stroke-width:0.3629;stroke-miterlimit:1;}
	.Jive_GS{fill:#FFDD00;}
	.Alyssa_GS{fill:#A6D0E4;}
	.st0{fill:#FFFFFF;}
	.st1{fill:none;stroke:#F2F2F2;stroke-miterlimit:10;}
	.st2{fill:none;}
	.st3{fill:none;stroke:#F24088;stroke-linecap:round;stroke-linejoin:round;}
	.st4{fill:#F5C549;}
	.st5{fill:none;stroke:#F24088;}
	.st6{fill:#F24088;}
	.st7{fill:none;stroke:#F24088;stroke-width:8;stroke-miterlimit:10;}
</style>
<linearGradient id="SVGID_1_" gradientUnits="userSpaceOnUse" x1="-1645.3271" y1="-3600.707" x2="-1645.3271" y2="-3601.707">
	<stop  offset="0" style="stop-color:#656565"/>
	<stop  offset="0.618" style="stop-color:#1B1B1B"/>
	<stop  offset="0.6292" style="stop-color:#545454"/>
	<stop  offset="0.9831" style="stop-color:#3E3E3E"/>
</linearGradient>
<path class="st6" d="M41.85,3.51c3.1,0,4.81,1.9,4.5,5l-1.4,12.81c-0.2,2.5-2.6,4.1-4.1,4.1v1.9c5.81,6.31,6.51,14.51,2.01,18.11
	l-0.91,32.52c0,7.81-11.5,7.81-11.5,0v-10.7c-3.61,1.3-6.8,0-7.71-3.61c-3.8,2.11-7.91-0.8-8.31-4.3c-4.4,0.6-6.9-2.2-6.9-5.7
	l0.1-1.31c-0.1-1.5-1.1-6.2-1.3-10.51c-0.3-8,0-9.81,3.4-14.31v-2.1c-2.01-0.3-3.7-2.01-3.91-4.1L4.43,8.2c-0.3-2.9,1.2-4.7,3.9-4.7
	H41.85z M22.94,39.93c1.5-0.4,3.2-0.2,4.6,0.6c3.4-3.91,6.5-6.5,7.91-6.5c1.6,0,2.3,2.3,0.6,3.4c-2.01,1.5-7.71,6.7-10.11,11.01
	c-2.3,4.3-0.4,5.5,2.9,3.2c13.11-9.7,16.82-12.51,8.51-23.72v-2.5H13.23l-0.1,2.7c-3.7,5.51-3.3,7.41-3.1,17.31l1.6-4.9
	c0.9-2.9,3.3-4.6,5.8-4.6C20.64,35.93,22.24,37.93,22.94,39.93z M19.54,42.23c0.9-2.8-3.4-3.8-4.2-1.2l-4.01,11.71
	c-1,3.3,3,4.31,3.9,1.71L19.54,42.23z M23.44,55.94c-3.7-3.7-1.9-8.21,1.8-12.81c-1.71-0.4-2-0.11-3,2.4l-4.01,11.81
	c-1.2,3.7,3,4.61,4.21,1.5L23.44,55.94z M33.95,77.95c0,3.21,4.6,3.1,4.6,0l0.91-29.82l-5.51,4.01V77.95z M30.45,54.64l-3.3,1.4
	l-1,5.3c-0.5,3.9,4.61,3.8,4.61,0.5L30.45,54.64z"/>
</svg>
