<?xml version="1.0" encoding="utf-8"?>
<!-- Generator: Adobe Illustrator 16.0.4, SVG Export Plug-In . SVG Version: 6.00 Build 0)  -->
<!DOCTYPE svg PUBLIC "-//W3C//DTD SVG 1.1//EN" "http://www.w3.org/Graphics/SVG/1.1/DTD/svg11.dtd">
<svg version="1.1" id="Layer_1" xmlns="http://www.w3.org/2000/svg" xmlns:xlink="http://www.w3.org/1999/xlink" x="0px" y="0px"
	 width="327px" height="64px" viewBox="0 0 327 64" enable-background="new 0 0 327 64" xml:space="preserve">
<g>
	<path fill="#F24088" d="M12.686,45.527H8.065L7.52,52.123H4.453l0.546-6.595H0.756v-2.772h4.495l0.588-6.553H1.554v-2.772h4.495
		l0.63-6.721h3.066l-0.63,6.721h4.621l0.63-6.721h3.066l-0.63,6.721h4.243v2.772h-4.453l-0.588,6.553h4.243v2.772h-4.495
		l-0.546,6.595H12.14L12.686,45.527z M8.317,42.755h4.621l0.588-6.553H8.906L8.317,42.755z"/>
	<path fill="#F24088" d="M25.662,26.75c0-0.714-0.336-0.966-1.05-1.008l-1.47-0.084v-3.486h7.393v9.956
		c1.176-1.092,3.108-1.764,5.083-1.764c5.209,0,8.569,3.612,8.569,10.166c0,8.191-3.402,12.14-10.166,12.14
		c-2.941,0-6.595-0.798-8.36-1.806V26.75z M30.535,48.132c0.798,0.42,2.311,0.84,3.697,0.84c2.94,0,4.789-2.017,4.789-7.771
		c0-3.277-0.798-7.099-4.705-7.099c-1.933,0-3.781,1.26-3.781,3.15V48.132z"/>
	<path fill="#F24088" d="M49.771,35.782c0-0.924-0.252-1.218-1.05-1.26l-1.764-0.126v-3.403h7.099v3.151
		c0.966-2.101,3.193-3.781,5.965-3.781c1.386,0,2.646,0.252,4.033,0.924v6.259l-3.907,0.294v-1.932c0-0.504-0.084-0.882-0.42-1.05
		c-0.378-0.168-0.672-0.21-1.134-0.21c-2.269,0-3.823,1.806-3.823,4.243v9.746l3.654,0.168v3.318H47.166V48.93l1.386-0.126
		c0.798-0.084,1.218-0.336,1.218-1.387V35.782z"/>
	<path fill="#F24088" d="M85.431,47.46c0,0.924,0.252,1.176,1.05,1.218l1.344,0.084v3.36h-6.679v-2.437l-0.126-0.042
		c-1.302,1.891-3.445,3.024-5.755,3.024c-5.923,0-8.401-4.201-8.401-10.208c0-7.394,3.529-12.098,11.09-12.098
		c1.387,0,4.453,0.336,7.478,1.47V47.46z M80.558,34.563c-0.63-0.294-1.932-0.546-3.234-0.546c-3.991,0-5.335,3.738-5.335,8.275
		c0,3.486,0.84,6.805,4.369,6.805c2.604,0,4.201-1.849,4.201-3.655V34.563z"/>
	<path fill="#F24088" d="M96.938,26.54v4.453h5.587l-0.42,3.529h-5.167v11.048c0,2.562,1.008,3.319,2.73,3.319
		c1.134,0,2.184-0.462,2.856-0.882l1.26,3.234c-1.26,0.882-3.361,1.47-5.335,1.47c-6.553,0-6.511-4.033-6.511-6.973V34.521h-2.982
		l0.42-3.066c2.94-0.252,3.949-2.521,4.831-4.915H96.938z"/>
	<path fill="#F24088" d="M112.981,48.636l2.394,0.126v3.36h-9.998V48.93l1.386-0.126c0.756-0.084,1.218-0.336,1.218-1.344V35.782
		c0-0.924-0.252-1.218-1.05-1.218l-1.47-0.084v-3.487h7.52V48.636z M110.041,22.003c1.849,0,3.193,1.386,3.193,3.15
		s-1.344,3.066-3.235,3.066c-1.932,0-3.192-1.302-3.192-3.066S108.066,22.003,110.041,22.003z"/>
	<path fill="#F24088" d="M126.379,33.807c-1.806,0-3.15,0.84-3.15,2.521c0,1.933,2.017,2.521,3.991,3.067
		c3.276,0.924,6.889,1.974,6.889,6.553c0,4.369-3.613,6.721-8.107,6.721c-2.646,0-5.965-0.42-7.729-1.302v-5.839l3.781-0.294v2.016
		c0,0.798,0.21,1.134,0.966,1.428c0.798,0.294,1.764,0.42,2.772,0.42c2.101,0,3.318-0.798,3.318-2.562
		c0-2.017-1.848-2.395-4.117-2.982c-3.108-0.798-6.511-1.849-6.511-6.511c0-4.369,3.696-6.679,8.107-6.679
		c2.856,0,5.335,0.882,6.973,1.68v5.041l-3.781,0.294v-1.764c0-0.798-0.21-1.134-0.966-1.428
		C128.018,33.891,127.387,33.807,126.379,33.807z"/>
	<path fill="#F24088" d="M144.271,48.636l2.394,0.126v3.36h-9.998V48.93l1.386-0.126c0.756-0.084,1.218-0.336,1.218-1.344V26.75
		c0-0.756-0.42-0.966-1.05-1.008l-1.47-0.084v-3.486h7.52V48.636z"/>
	<path fill="#F24088" d="M168.128,47.46c0,0.924,0.252,1.176,1.05,1.218l1.344,0.084v3.36h-6.679v-2.437l-0.126-0.042
		c-1.302,1.891-3.445,3.024-5.755,3.024c-5.923,0-8.402-4.201-8.402-10.208c0-7.394,3.529-12.098,11.09-12.098
		c1.386,0,4.453,0.336,7.477,1.47V47.46z M163.255,34.563c-0.63-0.294-1.932-0.546-3.234-0.546c-3.991,0-5.335,3.738-5.335,8.275
		c0,3.486,0.84,6.805,4.369,6.805c2.604,0,4.201-1.849,4.201-3.655V34.563z"/>
	<path fill="#F24088" d="M193.034,30.993v3.277l-1.302,0.084c-0.546,0.042-0.882,0.21-1.134,1.008l-5.419,16.761h-6.427
		l-5.881-16.719c-0.252-0.756-0.462-1.008-1.218-1.05l-1.218-0.084v-3.277h9.872v3.361l-2.562,0.126l4.327,13.82h0.084l4.201-13.82
		l-2.184-0.126v-3.361H193.034z"/>
	<path fill="#F24088" d="M213.698,47.46c0,0.924,0.252,1.176,1.05,1.218l1.344,0.084v3.36h-6.679v-2.437l-0.126-0.042
		c-1.302,1.891-3.445,3.024-5.755,3.024c-5.923,0-8.401-4.201-8.401-10.208c0-7.394,3.529-12.098,11.09-12.098
		c1.387,0,4.453,0.336,7.478,1.47V47.46z M208.825,34.563c-0.63-0.294-1.932-0.546-3.234-0.546c-3.991,0-5.335,3.738-5.335,8.275
		c0,3.486,0.84,6.805,4.369,6.805c2.604,0,4.201-1.849,4.201-3.655V34.563z"/>
	<path d="M220.583,35.782c0-0.924-0.252-1.26-1.05-1.26l-1.764-0.126v-3.403h7.099v2.73c0.756-1.428,3.066-3.36,6.637-3.36
		c4.663,0,7.604,3.15,7.604,10.67c0,7.729-3.655,11.72-9.2,11.72c-1.638,0-3.403-0.546-4.495-1.218v5.797l3.403,0.168v3.318h-10.838
		v-3.192l1.386-0.126c0.798-0.084,1.218-0.336,1.218-1.386V35.782z M229.656,34.438c-2.395,0-4.243,1.68-4.243,3.613v9.662
		c1.092,0.714,2.604,1.05,3.697,1.05c3.571,0,4.789-3.655,4.789-7.31C233.899,35.866,231.882,34.438,229.656,34.438z"/>
	<path d="M260.947,47.46c0,0.924,0.252,1.176,1.05,1.218l1.344,0.084v3.36h-6.679v-2.437l-0.126-0.042
		c-1.302,1.891-3.445,3.024-5.755,3.024c-5.923,0-8.401-4.201-8.401-10.208c0-7.394,3.529-12.098,11.09-12.098
		c1.387,0,4.453,0.336,7.478,1.47V47.46z M256.074,34.563c-0.63-0.294-1.932-0.546-3.234-0.546c-3.991,0-5.335,3.738-5.335,8.275
		c0,3.486,0.84,6.805,4.369,6.805c2.604,0,4.201-1.849,4.201-3.655V34.563z"/>
	<path d="M268.503,35.782c0-0.924-0.252-1.218-1.05-1.26l-1.764-0.126v-3.403h7.099v3.151c0.966-2.101,3.193-3.781,5.965-3.781
		c1.386,0,2.646,0.252,4.033,0.924v6.259l-3.907,0.294v-1.932c0-0.504-0.084-0.882-0.42-1.05c-0.378-0.168-0.672-0.21-1.134-0.21
		c-2.269,0-3.823,1.806-3.823,4.243v9.746l3.654,0.168v3.318h-11.258V48.93l1.386-0.126c0.798-0.084,1.218-0.336,1.218-1.387V35.782
		z"/>
	<path d="M286.647,26.96c0-0.924-0.252-1.176-1.05-1.218l-1.47-0.084v-3.486h7.478V40.36c2.982-0.294,5.503-1.89,6.385-4.621
		c0.336-1.008-0.084-1.386-0.672-1.386l-1.596-0.084v-3.277h8.695v3.403l-2.016,0.084c-0.378,2.898-1.512,5.041-3.697,6.763
		l4.117,7.393l2.562,0.126v3.36h-6.133l-4.789-8.737c-0.882,0.252-1.891,0.462-2.856,0.588v4.663h0.042l2.394,0.126v3.36h-9.998
		V48.93l1.386-0.126c0.798-0.084,1.218-0.336,1.218-1.387V26.96z"/>
	<path d="M315.964,33.807c-1.806,0-3.15,0.84-3.15,2.521c0,1.933,2.017,2.521,3.991,3.067c3.276,0.924,6.889,1.974,6.889,6.553
		c0,4.369-3.613,6.721-8.107,6.721c-2.646,0-5.965-0.42-7.729-1.302v-5.839l3.781-0.294v2.016c0,0.798,0.21,1.134,0.966,1.428
		c0.798,0.294,1.764,0.42,2.772,0.42c2.101,0,3.318-0.798,3.318-2.562c0-2.017-1.848-2.395-4.117-2.982
		c-3.108-0.798-6.511-1.849-6.511-6.511c0-4.369,3.696-6.679,8.107-6.679c2.856,0,5.335,0.882,6.973,1.68v5.041l-3.781,0.294v-1.764
		c0-0.798-0.21-1.134-0.966-1.428C317.603,33.891,316.972,33.807,315.964,33.807z"/>
</g>
</svg>
