<?xml version="1.0" encoding="utf-8"?>
<!-- Generator: Adobe Illustrator 25.2.1, SVG Export Plug-In . SVG Version: 6.00 Build 0)  -->
<svg version="1.1" id="medicka-seasons-radar" class="seasons-radar seasons-radar-highlighted" xmlns="http://www.w3.org/2000/svg" xmlns:xlink="http://www.w3.org/1999/xlink" x="0px" y="0px"
	 viewBox="0 0 195 195" style="enable-background:new 0 0 195 195;" xml:space="preserve" onclick="">
<g class="radar">
	<g>
		<g class="scales">
			<line class="scale-line" x1="97.38" y1="97.7" x2="10" y2="10.05"/>
			<line class="scale-line" x1="97.38" y1="97.7" x2="10.15" y2="185"/>
			<line class="scale-line" x1="97.38" y1="97.7" x2="184.35" y2="184.75"/>
			<line class="scale-line" x1="97.38" y1="97.7" x2="185" y2="10"/>
		</g>
		<text transform="matrix(0.7071 0.7071 -0.7071 0.7071 4.6772 22.6274)" class="value typo">13.4%</text>
		<text transform="matrix(0.7071 0.7071 -0.7071 0.7071 119.5396 138.1124)" class="value typo">6%</text>
		<text transform="matrix(0.7071 -0.7071 0.7071 0.7071 130.5299 82.6855)" class="value typo">4.8%</text>
		<text transform="matrix(0.7071 -0.7071 0.7071 0.7071 78.1192 135.0978)" class="value typo">1.1%</text>
		<text transform="matrix(0.7071 0.7071 -0.7071 0.7071 15.0171 10.9673)" class="label typo">#spring</text>
		<text transform="matrix(0.7071 0.7071 -0.7071 0.7071 130.5396 127.1124)" class="label typo">#autumn</text>
		<text transform="matrix(0.7071 -0.7071 0.7071 0.7071 119.5299 71.6855)" class="label typo">#summer</text>
		<text transform="matrix(0.7071 -0.7071 0.7071 0.7071 62.5375 128.6796)" class="label typo">#winter</text>
	</g>
	<circle class="hidden-circle" cx="97.27" cy="97.61" r="75"/>
	<polygon class="radar-polygon" points="38.35,38.69 92.73,102.14 124.46,124.8 115.39,79.48 	"/>
	<g>
		<text transform="matrix(1 0 0 1 135.0257 99.3424)" class="typo park-name"><tspan x="0" y="0">Medická</tspan><tspan x="0" y="14">záhrada</tspan></text>
	</g>
	<circle class="dot" cx="97.27" cy="97.61" r="1.39"/>
</g>
</svg>
