<?xml version="1.0" encoding="utf-8"?>
<!-- Generator: Adobe Illustrator 16.0.4, SVG Export Plug-In . SVG Version: 6.00 Build 0)  -->
<!DOCTYPE svg PUBLIC "-//W3C//DTD SVG 1.1//EN" "http://www.w3.org/Graphics/SVG/1.1/DTD/svg11.dtd">
<svg version="1.1" id="cc_logo" xmlns="http://www.w3.org/2000/svg" xmlns:xlink="http://www.w3.org/1999/xlink" x="0px" y="0px"
	 width="79.274px" height="34.86px" viewBox="13.213 5.81 79.274 34.86" enable-background="new 13.213 5.81 79.274 34.86"
	 xml:space="preserve">
<g>
	<path d="M75.025,5.81c4.896,0,9.026,1.681,12.387,5.043c3.382,3.383,5.075,7.512,5.075,12.388c0,4.898-1.66,8.974-4.981,12.231
		c-3.528,3.466-7.688,5.198-12.481,5.198c-4.711,0-8.799-1.713-12.263-5.137c-3.424-3.423-5.138-7.521-5.138-12.294
		c0-4.773,1.713-8.902,5.138-12.388C66.121,7.49,70.21,5.81,75.025,5.81L75.025,5.81z M75.087,8.954
		c-3.964,0-7.314,1.39-10.053,4.17c-2.846,2.906-4.265,6.277-4.265,10.116c0,3.859,1.411,7.201,4.231,10.022
		c2.823,2.821,6.186,4.232,10.086,4.232c3.879,0,7.262-1.421,10.146-4.263c2.741-2.636,4.109-5.966,4.109-9.992
		c0-3.964-1.391-7.334-4.171-10.116C82.391,10.344,79.028,8.954,75.087,8.954L75.087,8.954z M79.755,18.915v7.127h-1.992v8.467
		h-5.415v-8.466h-1.992v-7.128c0-0.311,0.108-0.576,0.327-0.794c0.218-0.219,0.482-0.328,0.793-0.328h7.159
		c0.292,0,0.55,0.109,0.779,0.328C79.643,18.339,79.755,18.604,79.755,18.915L79.755,18.915z M72.629,14.432
		c0-1.639,0.808-2.459,2.427-2.459c1.618,0,2.426,0.821,2.426,2.459c0,1.619-0.808,2.428-2.426,2.428
		C73.437,16.86,72.629,16.052,72.629,14.432L72.629,14.432z"/>
	<path fill="none" stroke="#000000" stroke-width="0.5" d="M178.995-41.104"/>
</g>
<g>
	<path d="M30.612,5.81c4.877,0,9.026,1.703,12.449,5.104c1.639,1.64,2.885,3.512,3.735,5.619c0.852,2.106,1.277,4.342,1.277,6.708
		c0,2.387-0.421,4.621-1.26,6.707c-0.84,2.085-2.08,3.927-3.719,5.524c-1.702,1.68-3.631,2.968-5.788,3.86
		c-2.159,0.891-4.391,1.337-6.693,1.337S26.104,40.23,24,39.345c-2.106-0.881-3.995-2.157-5.666-3.827
		c-1.672-1.67-2.942-3.554-3.814-5.648c-0.871-2.096-1.308-4.307-1.308-6.63c0-2.304,0.44-4.518,1.324-6.646
		c0.881-2.128,2.162-4.031,3.844-5.712C21.7,7.501,25.776,5.81,30.612,5.81L30.612,5.81z M30.675,8.954
		c-3.984,0-7.336,1.39-10.054,4.17c-1.37,1.39-2.423,2.952-3.16,4.686c-0.736,1.733-1.104,3.543-1.104,5.432
		c0,1.866,0.368,3.666,1.104,5.399s1.79,3.28,3.16,4.639c1.369,1.36,2.915,2.396,4.638,3.113c1.722,0.715,3.527,1.072,5.417,1.073
		c1.867,0,3.678-0.361,5.43-1.09c1.755-0.726,3.336-1.774,4.748-3.143c2.719-2.656,4.078-5.987,4.078-9.991
		c0-1.93-0.353-3.756-1.058-5.479c-0.705-1.722-1.733-3.258-3.081-4.608C37.989,10.355,34.616,8.954,30.675,8.954L30.675,8.954z
		 M30.457,20.345l-2.334,1.215c-0.25-0.518-0.556-0.883-0.919-1.09c-0.364-0.206-0.7-0.311-1.011-0.311
		c-1.557,0-2.335,1.026-2.335,3.081c0,0.935,0.196,1.681,0.592,2.24c0.394,0.561,0.975,0.842,1.743,0.842
		c1.017,0,1.732-0.498,2.147-1.494l2.148,1.09c-0.458,0.851-1.091,1.52-1.9,2.008c-0.809,0.486-1.701,0.731-2.676,0.731
		c-1.556,0-2.812-0.479-3.766-1.433c-0.955-0.953-1.433-2.282-1.433-3.983c0-1.661,0.483-2.977,1.447-3.954
		c0.965-0.975,2.183-1.462,3.657-1.462C27.977,17.825,29.523,18.665,30.457,20.345L30.457,20.345z M40.51,20.345l-2.302,1.215
		c-0.25-0.518-0.556-0.883-0.919-1.09c-0.363-0.206-0.711-0.311-1.044-0.311c-1.555,0-2.334,1.027-2.334,3.081
		c0,0.934,0.198,1.68,0.591,2.24c0.394,0.561,0.976,0.841,1.743,0.841c1.019,0,1.733-0.498,2.148-1.494l2.178,1.09
		c-0.477,0.852-1.12,1.52-1.929,2.008c-0.809,0.486-1.691,0.731-2.646,0.731c-1.577,0-2.838-0.479-3.782-1.433
		c-0.944-0.953-1.416-2.282-1.416-3.983c0-1.66,0.482-2.978,1.447-3.954c0.964-0.975,2.185-1.462,3.657-1.462
		C38.061,17.825,39.598,18.665,40.51,20.345L40.51,20.345z"/>
	<path fill="none" stroke="#000000" stroke-width="0.5" d="M108.985,96.896"/>
</g>
</svg>
