<?xml version="1.0" encoding="utf-8"?>
<!-- Generator: Adobe Illustrator 16.0.4, SVG Export Plug-In . SVG Version: 6.00 Build 0)  -->
<!DOCTYPE svg PUBLIC "-//W3C//DTD SVG 1.1//EN" "http://www.w3.org/Graphics/SVG/1.1/DTD/svg11.dtd">
<svg version="1.1" id="mib_logo" xmlns="http://www.w3.org/2000/svg" xmlns:xlink="http://www.w3.org/1999/xlink" x="0px" y="0px"
	 width="101.33px" height="64.155px" viewBox="48.514 113.36 101.33 64.155" enable-background="new 48.514 113.36 101.33 64.155"
	 xml:space="preserve">
<path fill="#1D1D1B" d="M140.135,132.799c-0.48,1.269-0.967,2.528-1.448,3.794c-0.212,0.538-0.518,0.809-1.261,0.809h-0.709v-0.785
	h1.179c-0.47-1.269-0.958-2.543-1.429-3.817h0.965c0.223,0.675,0.438,1.351,0.651,2.024c0.067,0.249,0.134,0.504,0.208,0.756
	c0.064-0.252,0.143-0.507,0.214-0.756c0.226-0.674,0.438-1.35,0.663-2.024H140.135z"/>
<polygon fill="#1D1D1B" points="136.313,132.799 135.007,136.214 133.958,136.214 132.652,132.799 133.613,132.799 134.489,135.517 
	135.345,132.799 "/>
<path fill="#1D1D1B" d="M131.197,132.8v0.766c-0.219-0.535-0.644-0.834-1.225-0.834c-0.96,0-1.514,0.712-1.514,1.783
	c0,1.055,0.576,1.771,1.544,1.771c0.571,0,0.983-0.296,1.188-0.818v0.75h0.88V132.8H131.197z M130.272,135.479
	c-0.618,0-0.925-0.314-0.925-0.968c0-0.67,0.307-0.983,0.925-0.983c0.649,0,0.949,0.313,0.949,0.983
	C131.222,135.168,130.922,135.479,130.272,135.479"/>
<rect x="126.83" y="131.338" fill="#1D1D1B" width="0.882" height="4.876"/>
<path fill="#1D1D1B" d="M123.119,135.273c0.281-0.075,0.557-0.154,0.838-0.231c0.051,0.449,0.287,0.568,0.719,0.568
	c0.342,0,0.561-0.119,0.561-0.351c0-0.207-0.097-0.312-0.501-0.37c-0.197-0.035-0.383-0.066-0.579-0.096
	c-0.593-0.092-0.968-0.437-0.968-1.02c0-0.654,0.513-1.037,1.368-1.037c0.924,0,1.345,0.383,1.456,0.992l-0.776,0.188
	c-0.049-0.43-0.213-0.536-0.65-0.536c-0.336,0-0.495,0.125-0.495,0.355c0,0.188,0.087,0.307,0.429,0.35
	c0.229,0.037,0.455,0.069,0.693,0.106c0.562,0.081,0.912,0.419,0.912,0.976c0,0.705-0.557,1.123-1.493,1.123
	C123.744,136.278,123.213,135.829,123.119,135.273"/>
<rect x="121.564" y="132.8" fill="#1D1D1B" width="0.881" height="3.414"/>
<path fill="#1D1D1B" d="M121.42,131.667c0-0.348,0.207-0.545,0.582-0.545c0.368,0,0.576,0.197,0.576,0.545
	c0,0.357-0.201,0.563-0.576,0.563C121.633,132.23,121.42,132.024,121.42,131.667"/>
<path fill="#1D1D1B" d="M119.865,133.581v1.851h0.906v0.782h-0.729c-0.638,0-1.062-0.424-1.062-1.06v-1.573h-0.649V132.8h0.649
	v-1.017h0.879v1.013h0.994v0.785H119.865z"/>
<path fill="#1D1D1B" d="M116.823,132.8v0.766c-0.213-0.535-0.637-0.834-1.224-0.834c-0.957,0-1.517,0.712-1.517,1.783
	c0,1.055,0.579,1.771,1.55,1.771c0.57,0,0.982-0.296,1.184-0.818v0.75h0.882V132.8H116.823z M115.905,135.479
	c-0.626,0-0.932-0.314-0.932-0.968c0-0.67,0.306-0.983,0.932-0.983c0.649,0,0.949,0.313,0.949,0.983
	C116.854,135.168,116.555,135.479,115.905,135.479"/>
<path fill="#1D1D1B" d="M113.787,132.793v0.837c-0.125-0.049-0.237-0.067-0.463-0.067c-0.558,0-0.941,0.378-0.941,1.243v1.411
	h-0.889V132.8h0.889v0.971c0.084-0.513,0.334-1.025,0.992-1.025C113.5,132.743,113.662,132.743,113.787,132.793"/>
<path fill="#1D1D1B" d="M109.508,133.718c0.743-0.169,1.05-0.598,1.05-1.143c0-0.746-0.575-1.237-1.512-1.237h-2.124v4.879h2.318
	c0.887,0,1.486-0.525,1.486-1.374C110.727,134.332,110.427,133.855,109.508,133.718 M107.827,132.149h1.118
	c0.407,0,0.644,0.182,0.644,0.569c0,0.438-0.204,0.656-0.637,0.656h-1.125V132.149z M109.046,135.404h-1.219v-1.274h1.163
	c0.493,0,0.773,0.2,0.773,0.602C109.764,135.198,109.526,135.404,109.046,135.404"/>
<path fill="#1D1D1B" d="M129.229,125.453v1.854h0.905v0.777h-0.735c-0.626,0-1.054-0.426-1.054-1.057v-1.574h-0.657v-0.78h0.657
	v-1.015h0.879v1.015h0.996v0.776h-0.991V125.453z"/>
<polygon fill="#1D1D1B" points="125.562,124.185 125.081,124.185 125.5,122.98 126.762,122.98 "/>
<path fill="#1D1D1B" d="M127.062,124.673v3.411h-0.88v-0.801c-0.169,0.557-0.525,0.875-1.138,0.875
	c-0.806,0-1.212-0.487-1.212-1.442v-2.043h0.887v1.993c0,0.466,0.238,0.687,0.656,0.687c0.486,0,0.807-0.346,0.807-1.046v-1.634
	H127.062z"/>
<path fill="#1D1D1B" d="M122.17,125.453v1.854h0.906v0.777h-0.727c-0.636,0-1.062-0.426-1.062-1.057v-1.574h-0.647v-0.78h0.647
	v-1.015h0.879v1.015h0.996v0.776h-0.992V125.453z"/>
<rect x="119.128" y="124.673" fill="#1D1D1B" width="0.887" height="3.411"/>
<path fill="#1D1D1B" d="M118.991,123.538c0-0.346,0.2-0.542,0.581-0.542c0.367,0,0.574,0.196,0.574,0.542
	c0,0.359-0.204,0.565-0.574,0.565C119.197,124.104,118.991,123.897,118.991,123.538"/>
<path fill="#1D1D1B" d="M117.436,125.453v1.854h0.906v0.777h-0.731c-0.632,0-1.056-0.426-1.056-1.057v-1.574h-0.656v-0.78h0.656
	v-1.015h0.881v1.015h0.993v0.776h-0.993V125.453z"/>
<polygon fill="#1D1D1B" points="113.681,124.185 112.825,122.98 113.375,122.98 114.068,123.529 114.762,122.98 115.312,122.98 
	114.456,124.185 "/>
<path fill="#1D1D1B" d="M115.58,127.033c0,0.706-0.557,1.125-1.492,1.125c-0.876,0-1.406-0.456-1.5-1.012
	c0.275-0.069,0.549-0.151,0.83-0.228c0.057,0.452,0.288,0.564,0.725,0.564c0.339,0,0.562-0.112,0.562-0.348
	c0-0.208-0.101-0.308-0.509-0.375c-0.189-0.029-0.379-0.058-0.57-0.089c-0.601-0.099-0.968-0.439-0.968-1.022
	c0-0.654,0.505-1.037,1.367-1.037c0.925,0,1.346,0.383,1.456,0.987l-0.781,0.179c-0.051-0.432-0.218-0.533-0.65-0.533
	c-0.33,0-0.499,0.121-0.499,0.354c0,0.188,0.094,0.308,0.425,0.35c0.231,0.038,0.469,0.066,0.699,0.108
	C115.236,126.134,115.58,126.474,115.58,127.033"/>
<path fill="#1D1D1B" d="M111.944,126.045v2.039h-0.88v-1.987c0-0.462-0.238-0.693-0.662-0.693c-0.496,0-0.801,0.35-0.801,1.056
	v1.625h-0.883v-3.411h0.883v0.793c0.162-0.549,0.513-0.861,1.129-0.861C111.532,124.604,111.944,125.085,111.944,126.045"/>
<rect x="106.835" y="124.673" fill="#1D1D1B" width="0.88" height="3.411"/>
<path fill="#1D1D1B" d="M106.69,123.538c0-0.346,0.204-0.542,0.588-0.542c0.368,0,0.567,0.196,0.567,0.542
	c0,0.359-0.197,0.565-0.567,0.565C106.903,124.104,106.69,123.897,106.69,123.538"/>
<polygon fill="#1D1D1B" points="148.188,116.054 147.701,116.054 148.126,114.852 149.387,114.852 "/>
<path fill="#1D1D1B" d="M149.844,116.545c-0.479,1.267-0.963,2.524-1.443,3.79c-0.21,0.541-0.525,0.808-1.262,0.808h-0.712v-0.783
	h1.187c-0.481-1.271-0.949-2.544-1.431-3.814h0.962c0.219,0.675,0.438,1.35,0.65,2.019c0.074,0.256,0.138,0.506,0.206,0.76
	c0.072-0.254,0.149-0.504,0.219-0.76c0.22-0.669,0.442-1.344,0.657-2.019H149.844z"/>
<path fill="#1D1D1B" d="M145.783,117.915v2.04h-0.881v-1.992c0-0.462-0.244-0.687-0.662-0.687c-0.5,0-0.801,0.344-0.801,1.049v1.63
	h-0.884v-3.41h0.884v0.794c0.163-0.551,0.514-0.862,1.127-0.862C145.371,116.477,145.783,116.958,145.783,117.915"/>
<path fill="#1D1D1B" d="M140.86,117.323v1.852h0.905v0.78h-0.729c-0.638,0-1.056-0.425-1.056-1.058v-1.574h-0.656v-0.778h0.656
	v-1.018h0.876v1.018h0.991v0.778H140.86z"/>
<rect x="137.818" y="116.545" fill="#1D1D1B" width="0.881" height="3.41"/>
<path fill="#1D1D1B" d="M137.675,115.408c0-0.346,0.206-0.543,0.581-0.543c0.367,0,0.577,0.197,0.577,0.543
	c0,0.362-0.202,0.566-0.577,0.566C137.888,115.975,137.675,115.771,137.675,115.408"/>
<rect x="135.932" y="115.083" fill="#1D1D1B" width="0.887" height="4.872"/>
<path fill="#1D1D1B" d="M133.357,116.477c-0.999,0.001-1.83,0.687-1.83,1.781c0,1.087,0.831,1.768,1.83,1.767
	c0.994,0,1.825-0.68,1.825-1.768C135.183,117.163,134.352,116.477,133.357,116.477 M133.357,119.226
	c-0.643,0-0.941-0.314-0.941-0.973c0-0.666,0.299-0.977,0.941-0.977c0.631,0,0.932,0.311,0.932,0.977
	C134.289,118.913,133.988,119.226,133.357,119.226"/>
<path fill="#1D1D1B" d="M129.517,116.478c-0.581,0-1.013,0.289-1.225,0.822v-0.754h-0.887v4.598h0.887v-1.918
	c0.212,0.512,0.618,0.8,1.175,0.8c0.98,0,1.553-0.712,1.553-1.772C131.022,117.187,130.466,116.478,129.517,116.478
	 M129.205,119.226c-0.645,0-0.951-0.314-0.951-0.973c0-0.666,0.307-0.977,0.951-0.977c0.629,0,0.924,0.311,0.924,0.977
	C130.129,118.913,129.834,119.226,129.205,119.226"/>
<path fill="#1D1D1B" d="M124.824,116.478c-0.998,0-1.822,0.686-1.822,1.78c0,1.087,0.824,1.768,1.822,1.768s1.824-0.681,1.824-1.768
	C126.648,117.163,125.825,116.478,124.824,116.478 M124.824,119.226c-0.636,0-0.936-0.314-0.936-0.973
	c0-0.666,0.3-0.977,0.936-0.977c0.638,0,0.938,0.311,0.938,0.977C125.762,118.913,125.462,119.226,124.824,119.226"/>
<path fill="#1D1D1B" d="M122.695,116.537v0.839c-0.125-0.052-0.231-0.072-0.463-0.072c-0.554,0-0.945,0.375-0.945,1.241v1.412
	h-0.885v-3.411h0.885v0.971c0.092-0.518,0.333-1.027,0.996-1.027C122.408,116.489,122.57,116.489,122.695,116.537"/>
<path fill="#1D1D1B" d="M118.71,117.324v1.851h0.905v0.782h-0.727c-0.635,0-1.062-0.425-1.062-1.058v-1.575h-0.654v-0.778h0.656
	v-1.019h0.881v1.019h0.992v0.778H118.71z"/>
<path fill="#1D1D1B" d="M116.791,118.202c0-1.051-0.661-1.725-1.642-1.725c-1.007,0-1.706,0.723-1.706,1.793
	c0,1.061,0.693,1.755,1.736,1.755c0.763,0,1.3-0.3,1.535-0.888c-0.258-0.094-0.512-0.188-0.771-0.276
	c-0.163,0.358-0.333,0.475-0.733,0.475c-0.537,0-0.787-0.235-0.854-0.808h2.434C116.791,118.39,116.791,118.313,116.791,118.202
	 M114.355,117.927c0.068-0.551,0.312-0.781,0.8-0.781c0.506,0,0.743,0.199,0.756,0.781H114.355z"/>
<polygon fill="#1D1D1B" points="112.595,115.084 112.595,119.957 111.688,119.957 111.688,115.68 111.457,116.671 110.326,119.957 
	109.189,119.957 108.059,116.671 107.834,115.702 107.834,119.957 106.929,119.957 106.929,115.084 108.516,115.084 
	109.439,117.957 109.758,119.132 110.082,117.957 111.001,115.084 "/>
<polygon fill="#1D1D1B" points="95.922,133.131 83.566,125.999 67.031,131.937 73.735,135.804 75.885,135.067 84.49,131.737 
	75.615,136.892 82.552,140.901 "/>
<polygon fill="#1D1D1B" points="74.441,120.731 62.043,113.573 48.68,121.343 55.653,125.366 64.29,120.35 58.812,125.21 
	57.546,126.459 64.244,130.331 "/>
<polygon fill="#1D1D1B" points="109.209,140.808 101.881,136.572 88.516,144.339 95.849,148.572 "/>
<path fill="#1D1D1B" d="M127.736,151.498c-4.204-2.426-8.396-4.848-12.596-7.268c-4.457,2.587-8.916,5.177-13.373,7.765
	c5.298,3.062,10.592,6.116,15.884,9.173c0-0.005-0.008-0.013-0.008-0.015c5.407,1.867,9.319,1.306,12.19-0.362
	C134.064,158.336,133.495,154.824,127.736,151.498 M121.158,157.258c-1.661,0.973-3.062,0.973-4.66,0.05
	c-1.655-0.958-3.305-1.912-4.953-2.863c1.455-0.851,2.911-1.692,4.373-2.538c1.536,0.883,3.066,1.77,4.604,2.653
	C121.927,155.368,122.59,156.429,121.158,157.258"/>
<polygon fill="#1D1D1B" points="82.552,140.901 75.615,136.892 75.57,152.796 82.51,156.807 "/>
<path fill="#1D1D1B" d="M117.667,161.173c-5.304-3.062-10.595-6.116-15.893-9.178c-0.019,5.304-0.031,10.598-0.043,15.902
	l14.149,8.171c4.909,2.837,8.232,1.526,8.245-4.127C124.138,169.168,122.982,165.228,117.667,161.173 M114.024,167.772
	c-1.749-1.012-3.504-2.027-5.263-3.04c0.007-1.729,0.016-3.464,0.021-5.192l5.066,2.923c1.678,0.971,2.878,2.424,2.869,4.126
	C116.717,168.561,115.787,168.786,114.024,167.772"/>
<polygon fill="#1D1D1B" points="95.854,148.579 88.518,144.344 88.469,160.241 95.803,164.477 "/>
<polygon fill="#1D1D1B" points="55.657,125.366 48.68,121.343 48.634,137.24 55.613,141.271 "/>
<polygon fill="#1D1D1B" points="73.73,135.804 67.031,131.937 66.643,133.593 65.614,139.5 64.619,132.374 64.244,130.33 
	57.541,126.459 61.068,144.418 70.109,149.641 "/>
</svg>
